<svg version="1.1" id="Layer_1" xmlns="http://www.w3.org/2000/svg" xmlns:xlink="http://www.w3.org/1999/xlink" x="0px" y="0px"
	 width="100%" viewBox="0 0 928 1024" enable-background="new 0 0 928 1024" xml:space="preserve">
<path fill="#000000" opacity="1.000000" stroke="none" 
	d="
M647.654724,497.531921 
	C642.086670,526.511963 636.609985,555.070007 631.061768,584.000916 
	C634.280151,584.530640 636.374634,583.127075 638.562317,582.144653 
	C655.727600,574.435791 673.562073,569.945862 692.448792,572.712708 
	C726.578857,577.712646 750.647705,596.958191 764.650696,627.779663 
	C776.496765,653.853760 776.682190,680.949341 764.008240,707.085388 
	C753.142029,729.493469 734.629089,742.956970 710.460388,748.213989 
	C687.196045,753.274231 663.539429,753.337830 639.843933,752.623596 
	C623.691345,752.136536 607.562073,751.400269 591.449280,750.213318 
	C566.706848,748.390686 541.964478,746.567566 517.220154,744.770447 
	C501.115723,743.600769 485.024475,742.054321 468.898102,741.423889 
	C439.108521,740.259338 409.321655,738.389038 379.484650,739.328796 
	C350.526001,740.240906 321.598602,741.632324 292.778137,744.870117 
	C277.890686,746.542542 262.960083,747.987915 248.010544,748.917542 
	C217.011826,750.845398 186.855927,732.368469 174.463135,703.417053 
	C161.897095,674.061096 162.135101,644.793701 181.274506,618.416260 
	C200.299942,592.195801 226.741333,580.861450 259.436707,586.414246 
	C261.077332,586.692871 262.763550,586.808044 264.352966,587.263245 
	C268.700653,588.508423 272.942841,590.038330 277.276001,587.037354 
	C283.168365,582.956604 287.669403,577.690735 290.667664,571.258118 
	C291.355804,569.781677 290.919067,567.626648 290.597137,565.857178 
	C286.904694,545.559692 283.100250,525.282593 279.407288,504.985199 
	C278.397430,499.434967 277.177032,493.858887 276.900879,488.252899 
	C276.368530,477.445343 284.776306,471.512695 294.833405,475.665466 
	C304.389313,479.611298 313.047119,485.364563 322.046875,490.421265 
	C338.168549,499.479675 354.384430,508.374542 370.382782,517.645203 
	C374.098175,519.798157 375.706451,519.045288 377.763275,515.674744 
	C396.330780,485.247681 415.037781,454.905701 433.698212,424.535248 
	C439.715088,414.742554 445.550659,404.833740 451.766266,395.169098 
	C458.877594,384.111664 468.068726,384.188660 475.146790,395.573212 
	C487.107391,414.810944 498.648102,434.309174 510.458069,453.641205 
	C522.963379,474.111420 535.673462,494.457336 548.062012,514.997498 
	C550.554810,519.130554 552.632568,520.070862 557.052002,517.518127 
	C578.403137,505.185211 599.922729,493.143799 621.399414,481.028839 
	C624.588867,479.229675 627.765869,477.349457 631.124573,475.920471 
	C640.778076,471.813416 649.749817,478.215424 649.125061,488.738770 
	C648.958313,491.546570 648.221252,494.320496 647.654724,497.531921 
z"/>
<path fill="#000000" opacity="1.000000" stroke="none" 
	d="
M450.952911,360.162231 
	C439.600739,349.383362 441.223694,333.813843 454.106659,326.848297 
	C462.442169,322.341431 471.771454,324.114319 478.012909,331.391327 
	C484.505219,338.960693 484.562744,349.518188 478.155273,357.505951 
	C472.662384,364.353485 462.693054,366.459564 454.667023,362.431549 
	C453.483063,361.837372 452.386047,361.069855 450.952911,360.162231 
z"/>
<path fill="#000000" opacity="1.000000" stroke="none" 
	d="
M278.998169,423.610046 
	C287.439056,427.803192 292.129822,434.184967 291.060516,443.355988 
	C290.077179,451.789703 285.237885,457.713135 276.868195,460.333740 
	C269.538422,462.628723 261.139862,460.019196 256.184723,453.898743 
	C251.433594,448.030273 250.905060,438.918793 254.903046,431.805206 
	C258.771881,424.921448 266.053528,421.260193 273.781372,422.383942 
	C275.418335,422.621979 277.021759,423.090515 278.998169,423.610046 
z"/>
<path fill="#000000" opacity="1.000000" stroke="none" 
	d="
M660.928223,460.196350 
	C651.520142,461.543457 644.092957,458.432465 640.303894,451.797089 
	C635.913574,444.108826 636.365112,435.214111 641.465576,428.913757 
	C646.445007,422.762909 654.431885,420.366150 662.125916,422.713928 
	C669.943909,425.099548 675.545715,432.554138 675.907776,441.054169 
	C676.271606,449.594788 670.992920,456.493805 660.928223,460.196350 
z"/>
</svg>